<svg width="42" height="42" viewBox="0 0 42 42" fill="none" xmlns="http://www.w3.org/2000/svg">
<g id="food-kitchenware-chef-toque-hat--cook-gear-chef-cooking-nutrition-tools-clothes-hat-clothing-food" clip-path="url(#clip0_163_30)">
<g id="Group">
<g id="Group_2">
<path id="Vector" d="M7.50073 40.5H34.5007" stroke="#F7522E" stroke-width="3" stroke-linecap="round" stroke-linejoin="round"/>
<path id="Vector_2" d="M40.2907 10.2C39.9856 8.94187 39.3588 7.78463 38.4717 6.84174C37.5846 5.89886 36.4676 5.20271 35.2304 4.82156C33.9932 4.44041 32.6782 4.38734 31.4142 4.66757C30.1503 4.94779 28.9809 5.55167 28.0207 6.42001C27.4966 4.97914 26.5418 3.73444 25.2859 2.85489C24.0301 1.97534 22.534 1.50354 21.0007 1.50354C19.4675 1.50354 17.9714 1.97534 16.7155 2.85489C15.4597 3.73444 14.5049 4.97914 13.9807 6.42001C13.0205 5.55167 11.8511 4.94779 10.5872 4.66757C9.32332 4.38734 8.00828 4.44041 6.77106 4.82156C5.53383 5.20271 4.4169 5.89886 3.52979 6.84174C2.64268 7.78463 2.01584 8.94187 1.71074 10.2C1.47237 11.1818 1.43402 12.2016 1.59798 13.1985C1.76194 14.1955 2.12486 15.1492 2.66511 16.003C3.20536 16.8568 3.91191 17.5931 4.74266 18.1681C5.57342 18.7431 6.5114 19.1451 7.50074 19.35V30C7.50074 30.7957 7.81681 31.5587 8.37942 32.1213C8.94203 32.6839 9.70509 33 10.5007 33H31.5007C32.2964 33 33.0594 32.6839 33.6221 32.1213C34.1847 31.5587 34.5007 30.7957 34.5007 30V19.35C35.4901 19.1451 36.4281 18.7431 37.2588 18.1681C38.0896 17.5931 38.7961 16.8568 39.3364 16.003C39.8766 15.1492 40.2395 14.1955 40.4035 13.1985C40.5675 12.2016 40.5291 11.1818 40.2907 10.2V10.2Z" stroke="#F7522E" stroke-width="3" stroke-linecap="round" stroke-linejoin="round"/>
</g>
<path id="Vector_3" d="M7.50037 25.5H34.5004" stroke="#F7522E" stroke-width="3" stroke-linecap="round" stroke-linejoin="round"/>
</g>
</g>
<defs>
<clipPath id="clip0_163_30">
<rect width="42" height="42" fill="white"/>
</clipPath>
</defs>
</svg>
