<svg width="48" height="48" viewBox="0 0 48 48" fill="none" xmlns="http://www.w3.org/2000/svg">
<g id="shopping-bag-hand-bag-2--shopping-bag-purse-goods-item-products">
<g id="Group">
<path id="Vector" d="M41.9809 40.4837C42.0291 40.9127 41.9858 41.3471 41.8541 41.7583C41.7223 42.1694 41.505 42.548 41.2164 42.8691C40.927 43.1897 40.573 43.4454 40.1776 43.6194C39.7823 43.7933 39.3546 43.8816 38.9227 43.8783H9.07483C8.64293 43.8816 8.21524 43.7933 7.8199 43.6194C7.42457 43.4454 7.07056 43.1897 6.78119 42.8691C6.4926 42.548 6.27526 42.1694 6.14349 41.7583C6.01171 41.3471 5.96848 40.9127 6.01665 40.4837L6.14349 16.3546H41.8541L41.9809 40.4837Z" stroke="#F7522E" stroke-width="3" stroke-linecap="round" stroke-linejoin="round"/>
<path id="Vector_2" d="M16.3545 16.3546V11.7673C16.3545 9.73959 17.16 7.79493 18.5938 6.36113C20.0276 4.92733 21.9723 4.12183 24 4.12183C26.0277 4.12183 27.9723 4.92733 29.4061 6.36113C30.8399 7.79493 31.6455 9.73959 31.6455 11.7673V16.3546" stroke="#F7522E" stroke-width="3" stroke-linecap="round" stroke-linejoin="round"/>
</g>
</g>
</svg>
