<svg width="48" height="48" viewBox="0 0 48 48" fill="none" xmlns="http://www.w3.org/2000/svg">
<g id="Frame 54">
<path id="Vector" d="M24 12C29.1717 12 34.1316 14.0545 37.7886 17.7114C41.4455 21.3684 43.5 26.3283 43.5 31.5V31.5C43.5 32.2956 43.1839 33.0587 42.6213 33.6213C42.0587 34.1839 41.2956 34.5 40.5 34.5H7.5C6.70435 34.5 5.94129 34.1839 5.37868 33.6213C4.81607 33.0587 4.5 32.2956 4.5 31.5C4.5 26.3283 6.55446 21.3684 10.2114 17.7114C13.8684 14.0545 18.8283 12 24 12V12Z" stroke="#F7522E" stroke-width="3" stroke-linecap="round" stroke-linejoin="round"/>
<path id="Vector_2" d="M24 12V7.5" stroke="#F7522E" stroke-width="3" stroke-linecap="round" stroke-linejoin="round"/>
<path id="Vector_3" d="M4.5 40.5H43.5" stroke="#F7522E" stroke-width="3" stroke-linecap="round" stroke-linejoin="round"/>
</g>
</svg>
