<svg width="230" height="233" viewBox="0 0 230 233" fill="none" xmlns="http://www.w3.org/2000/svg">
<path id="Star 2" d="M172.543 16.7921L174.465 51.8605L174.491 52.3427L174.974 52.333L210.088 51.6291L196.604 84.0585L196.419 84.5044L196.858 84.7052L228.8 99.3064L202.581 122.674L202.22 122.995L202.529 123.367L224.972 150.381L191.211 160.058L190.747 160.191L190.864 160.66L199.364 194.737L164.747 188.807L164.271 188.726L164.173 189.199L157.045 223.589L128.429 203.227L128.036 202.947L127.742 203.33L106.4 231.222L89.4523 200.461L89.2193 200.038L88.7885 200.256L57.4574 216.126L55.5352 181.057L55.5088 180.575L55.026 180.585L19.9121 181.289L33.3959 148.859L33.5813 148.413L33.1421 148.213L1.20011 133.612L27.4192 110.244L27.7797 109.923L27.4711 109.551L5.02762 82.5369L38.789 72.8596L39.2532 72.7265L39.1364 72.2579L30.6365 38.181L65.2533 44.1106L65.7293 44.1921L65.8273 43.7192L72.9546 9.32903L101.571 29.691L101.964 29.971L102.258 29.5875L123.6 1.69542L140.548 32.4569L140.781 32.8799L141.212 32.6617L172.543 16.7921Z" fill="#FFC42D" stroke="#FFC52F"/>
</svg>
